<?xml version="1.0" encoding="UTF-8"?>
<svg id="Layer_2" data-name="Layer 2" xmlns="http://www.w3.org/2000/svg" viewBox="0 0 40.22 40">
  <defs>
    <style>
      .cls-1 {
        fill: #eb455f;
        stroke-width: 0px;
      }
    </style>
  </defs>
  <g id="Logos">
    <g id="TSA_Red" data-name="TSA Red">
      <path class="cls-1" d="M28.97,18.4l11.09-.97c.06.47.1.94.13,1.41l-11.1.97c0-.48-.05-.95-.12-1.41ZM2.05,22.18l-1.25,3.43c-.12-.4-.22-.8-.32-1.21l.78-2.15-1.14.1c-.06-.47-.1-.94-.13-1.41l1.81-.16.85-2.33-2.48-1.42c.04-.25.08-.5.12-.75l2.6,1.49,1.56-4.29-3.72.91c.08-.27.16-.53.24-.79l2.84-.69-2.22-.94c.19-.44.39-.86.61-1.28l2.84,1.2,1.68-4.62-1.27-1.18c.16-.17.33-.34.49-.51l1.04.97.99-2.72c.78-.59,1.6-1.12,2.46-1.59l5.47,2.44-.15-2.13-3.75-1.08c.35-.15.7-.3,1.06-.43l2.64.76-.11-1.51c.46-.11.93-.2,1.4-.27l.15,2.2,5.49,1.57,1.66-3.57c.71.15,1.41.34,2.09.57l-1.68,3.59,2.27.65.46-3.86c.23.09.46.18.68.28l-.45,3.78,3.49,1,2.98-.73c.2.19.39.39.58.59l-2.18.53,3.49,1c.24.3.46.62.68.93l-5.56-1.59-3.79.93-.21,1.8,6.61,2.94,3.87-2.59c.12.21.23.42.34.63l-3.44,2.3,5.14,2.29c.13.56.24,1.12.33,1.7l-6.87-3.06-4.54,3.03c-.08-.23-.17-.45-.27-.68l4.04-2.7-5.39-2.4-.31,2.6c-.2-.22-.42-.43-.64-.62l.27-2.28-3.81-1.7-.87,1.86c-.5-.08-1.01-.13-1.53-.13-.26,0-.52.01-.78.04l.57-1.21-2.16.53.07.95c-.48.13-.94.29-1.39.5l-.08-1.1-3.96.97,1.74,1.63c-.18.16-.35.32-.51.49l-2.06-1.92-4.32,1.05,5.29,2.25c-.25.4-.48.82-.67,1.26l-6.62-2.81-1.69,4.63,3.78,2.16,3.79-.33c0,.48.05.95.12,1.41l-1.75.15,2.09,1.19c.12.36.26.72.43,1.06l-3.76-2.15-6.18.54ZM27.46,7.13l2.33-.57-2.19-.63-.14,1.2ZM26.63,8.06l-2.01.49,1.85.82.16-1.31ZM23.09,7.87l.48.21,3.15-.77.19-1.57-2.49-.71-1.33,2.85ZM20.55,8.29l-3.06-1.36.18,2.59,2.6-.63.28-.6ZM17.21,2.95l.17,2.37,3.77,1.68,1.2-2.57-5.14-1.47ZM7.55,7.07l4.18,3.9,4.53-1.11-.25-3.59-7.04-3.13-1.43,3.93ZM5.7,12.16l.43.18,4.79-1.17-3.62-3.38-1.59,4.37ZM2.59,20.71l3.48-.3-2.79-1.6-.69,1.9ZM40.21,20.19l-11.01,1.94,5.3,2.25,5.66-3.14c-.02.29-.04.57-.07.85l-4.76,2.64,3.82,1.62c-.15.45-.32.9-.5,1.33l-4.89-2.08-3.96,2.2,3.33,3.11,4.83-1.76c-.35.66-.72,1.31-1.14,1.92l-2.53.92,1.07.99c-.15.18-.31.36-.47.53l-1.34-1.25-3.24,1.18,2.93,1.67c-.19.16-.39.33-.58.48l-3.22-1.84-3.61,1.31,5.53,1.48c-.26.18-.53.35-.81.52l-5.89-1.58-.57.21-.47,3.98c-.24.04-.48.08-.73.12l.45-3.82-3.72,1.36.19,2.66c-.48,0-.96-.03-1.43-.07l-.15-2.08-3.74,1.36c-.72-.21-1.43-.46-2.12-.74l5.76-2.1-.14-2.02-6.62,3.67c-.26-.12-.51-.26-.76-.39l7.17-3.97-5.96-1.6-2.3,4.93c-.61-.38-1.2-.8-1.77-1.24l1.98-4.26-2.1-.56-2.89,1.93c-.15-.18-.3-.37-.45-.55l2.43-1.62-4.26-1.14c-.15-.28-.3-.57-.44-.85l5.49,1.47,4.14-2.77,1.1-2.35c.44.63.97,1.2,1.56,1.7l-2.17,4.65,5.77,1.55-.31-4.43c.47.14.95.24,1.44.29l.28,3.99,4.3-2.38-2.76-1.58c.39-.03.77-.09,1.14-.17l2.08,1.19.24-2.04c.26-.14.52-.29.77-.46l-.28,2.39,3.81-2.11-1.84-1.72c.16-.18.31-.36.46-.55l2.04,1.9,3.68-2.04-4.52-1.92c.25-.6.43-1.23.55-1.88l11.25-1.98c0,.14.01.28.01.41,0,.1,0,.2,0,.31ZM11.05,28.64l-2.65,1.77,1.62.44,1.03-2.21ZM22.27,34.86l-2.88-.77.12,1.77,2.76-1ZM23.92,31.06l-4.27,2.37,3.78,1.01.09-.03.39-3.34ZM27.81,32.85l-3.18-1.82-.37,3.11,3.54-1.29ZM29.14,28.17l-4.1,2.27,3.65,2.09,3.69-1.34-3.23-3.02ZM12.31,24.39l-11.26,1.98c.08.23.16.45.24.68l11.43-2.01c-.15-.21-.28-.43-.41-.65Z"/>
    </g>
  </g>
</svg>